<svg xmlns="http://www.w3.org/2000/svg" data-diagram-type="ACTIVITY" preserveAspectRatio="none" viewBox="0 0 1534 999"><path fill="none" d="M15 12.3h1501.6v18.6H15z" style="stroke:none;stroke-width:1"/><circle cx="156.8" cy="45.9" r="10" fill="#222" style="stroke:#222;stroke-width:1"/><rect width="271.5" height="38.6" x="21" y="75.9" fill="#fff" rx="12.5" ry="12.5" style="stroke:#000;stroke-width:.5"/><text x="31" y="100.8" font-family="Arial" font-size="16" textLength="251.5">1. Бачить рекламний креатив</text><rect width="220.5" height="75.9" x="46.5" y="211.8" fill="#fff" rx="12.5" ry="12.5" style="stroke:#000;stroke-width:.5"/><text x="56.5" y="236.6" font-family="Arial" font-size="16" textLength="171.3">2. Клікає по рекламі</text><text x="56.5" y="255.3" font-family="Arial" font-size="16" textLength="159">Переходить у стор</text><text x="56.5" y="273.9" font-family="Arial" font-size="16" textLength="200.5">Встановлює застосунок</text><path d="M15 12.3v975.3" style="stroke:#000;stroke-width:1.5"/><rect width="252.3" height="57.3" x="334" y="134.5" fill="#fff" rx="12.5" ry="12.5" style="stroke:#000;stroke-width:.5"/><text x="344" y="159.4" font-family="Arial" font-size="16" textLength="147.7">Фіксує impression</text><text x="344" y="178" font-family="Arial" font-size="16" textLength="232.3">Зберігає дані для атрибуції</text><rect width="115.8" height="38.6" x="402.3" y="307.6" fill="#fff" rx="12.5" ry="12.5" style="stroke:#000;stroke-width:.5"/><text x="412.3" y="332.5" font-family="Arial" font-size="16" textLength="95.8">Фіксує click</text><rect width="250.8" height="57.3" x="334.8" y="675.3" fill="#fff" rx="12.5" ry="12.5" style="stroke:#000;stroke-width:.5"/><text x="344.8" y="700.1" font-family="Arial" font-size="16" textLength="200.6">SRN повертає відповідь</text><text x="344.8" y="718.8" font-family="Arial" font-size="16" textLength="230.8">щодо релевантної кампанії</text><path d="M296.5 12.3v975.3" style="stroke:#000;stroke-width:1.5"/><rect width="318.2" height="38.6" x="627.8" y="366.3" fill="#fff" rx="12.5" ry="12.5" style="stroke:#000;stroke-width:.5"/><text x="637.8" y="391.1" font-family="Arial" font-size="16" textLength="298.2">3. Користувач запускає застосунок</text><rect width="246.5" height="57.3" x="663.7" y="424.9" fill="#fff" rx="12.5" ry="12.5" style="stroke:#000;stroke-width:.5"/><text x="673.7" y="449.8" font-family="Arial" font-size="16" textLength="226.5">SDK / модуль передає дані</text><text x="673.7" y="468.4" font-family="Arial" font-size="16" textLength="221.4">про встановлення до MMP</text><rect width="268.2" height="57.3" x="652.8" y="888.4" fill="#fff" rx="12.5" ry="12.5" style="stroke:#000;stroke-width:.5"/><text x="662.8" y="913.3" font-family="Arial" font-size="16" textLength="220.1">Сервіс отримує результат</text><text x="662.8" y="931.9" font-family="Arial" font-size="16" textLength="248.2">та маршрутизує користувача</text><circle cx="786.9" cy="976.6" r="11" fill="none" style="stroke:#222;stroke-width:1"/><circle cx="786.9" cy="976.6" r="6" fill="#222" style="stroke:#222;stroke-width:1"/><path d="M621.8 12.3v975.3" style="stroke:#000;stroke-width:1.5"/><rect width="231.3" height="57.3" x="974.3" y="502.1" fill="#fff" rx="12.5" ry="12.5" style="stroke:#000;stroke-width:.5"/><text x="984.3" y="527" font-family="Arial" font-size="16" textLength="203.4">Зіставляє встановлення</text><text x="984.3" y="545.6" font-family="Arial" font-size="16" textLength="211.3">з доступними сигналами</text><path fill="#fff" d="M1217.7 593.7v19.6l-20 4 20 4V641h292.4v-37.3l-10-10h-282.4" style="stroke:#000;stroke-width:.5"/><path fill="#fff" d="M1500 593.7v10h10l-10-10" style="stroke:#000;stroke-width:.5"/><text x="1223.7" y="613.6" font-family="Arial" font-size="16" textLength="238.3">SRN = Self-Reported Network</text><text x="1223.7" y="632.2" font-family="Arial" font-size="16" textLength="271.3">наприклад: Meta, Google, TikTok</text><rect width="215.7" height="75.9" x="982.1" y="579.4" fill="#fff" rx="12.5" ry="12.5" style="stroke:#000;stroke-width:.5"/><text x="992.1" y="604.3" font-family="Arial" font-size="16" textLength="141.7">4. Запитує у SRN</text><text x="992.1" y="622.9" font-family="Arial" font-size="16" textLength="195.7">підтвердження та дані</text><text x="992.1" y="641.5" font-family="Arial" font-size="16" textLength="154.1">про кліки / покази</text><rect width="267.8" height="38.6" x="956" y="752.5" fill="#fff" rx="12.5" ry="12.5" style="stroke:#000;stroke-width:.5"/><text x="966" y="777.4" font-family="Arial" font-size="16" textLength="247.8">Отримує результат атрибуції</text><rect width="231.6" height="57.3" x="974.1" y="811.1" fill="#fff" rx="12.5" ry="12.5" style="stroke:#000;stroke-width:.5"/><text x="984.1" y="836" font-family="Arial" font-size="16" textLength="190.7">5. Повертає результат</text><text x="984.1" y="854.6" font-family="Arial" font-size="16" textLength="211.6">атрибуції сервісу оренди</text><path d="M950 12.3v975.3m565.1-975.3v975.3" style="stroke:#000;stroke-width:1.5"/><path d="M156.8 55.9v20m-4-10 4 10 4-10-4 4zm634.1 339v20m-4-10 4 10 4-10-4 4zm4 530.7v20m-4-10 4 10 4-10-4 4zm307-396.2v20m-4-10 4 10 4-10-4 4zm4 221.7v20m-4-10 4 10 4-10-4 4zM156.8 114.5v5m0 0h303.4m0 0v15m-4-10 4 10 4-10-4 4zm4 67.3v5m0 0H156.8m0 0v15m-4-10 4 10 4-10-4 4zm4 85.8v5m0 0h303.4m0 0v15m-4-10 4 10 4-10-4 4zm4 48.7v5m0 0h326.7m0 0v15m-4-10 4 10 4-10-4 4zm4 125.8v5m0 0h303m0 0v15m-4-10 4 10 4-10-4 4zm4 163.2v5m0 0H460.2m0 0v15m-4-10 4 10 4-10-4 4zm4 67.2v5m0 0h629.7m0 0v15m-4-10 4 10 4-10-4 4zm4 125.9v5m0 0h-303m0 0v15m-4-10 4 10 4-10-4 4z" style="stroke:#000;stroke-width:1"/><text x="106.8" y="27.1" font-family="Arial" font-size="16" textLength="98">Користувач</text><text x="301.5" y="27.1" font-family="Arial" font-size="16" textLength="315.3">Рекламна мережа / джерело трафіку</text><text x="670.9" y="27.1" font-family="Arial" font-size="16" textLength="230">Застосунок / сервіс оренди</text><text x="1213.9" y="27.1" font-family="Arial" font-size="16" textLength="37.3">MMP</text></svg>