<svg xmlns="http://www.w3.org/2000/svg" data-diagram-type="ACTIVITY" preserveAspectRatio="none" viewBox="0 0 1298 981"><path fill="none" d="M15 12.3h1265.7v18.6H15z" style="stroke:none;stroke-width:1"/><circle cx="107.9" cy="45.9" r="10" fill="#222" style="stroke:#222;stroke-width:1"/><rect width="173.7" height="38.6" x="21" y="75.9" fill="#fff" rx="12.5" ry="12.5" style="stroke:#000;stroke-width:.5"/><text x="31" y="100.8" font-family="Arial" font-size="16" textLength="153.7">1. Sees ad creative</text><rect width="158.8" height="75.9" x="28.5" y="211.8" fill="#fff" rx="12.5" ry="12.5" style="stroke:#000;stroke-width:.5"/><text x="38.5" y="236.6" font-family="Arial" font-size="16" textLength="123.2">2. Clicks the ad</text><text x="38.5" y="255.3" font-family="Arial" font-size="16" textLength="138.8">Goes to the store</text><text x="38.5" y="273.9" font-family="Arial" font-size="16" textLength="123">Installs the app</text><path d="M15 12.3V969" style="stroke:#000;stroke-width:1.5"/><rect width="228.6" height="57.3" x="204.8" y="134.5" fill="#fff" rx="12.5" ry="12.5" style="stroke:#000;stroke-width:.5"/><text x="214.8" y="159.4" font-family="Arial" font-size="16" textLength="157.4">Records impression</text><text x="214.8" y="178" font-family="Arial" font-size="16" textLength="208.6">Stores data for attribution</text><rect width="125.5" height="38.6" x="256.4" y="307.6" fill="#fff" rx="12.5" ry="12.5" style="stroke:#000;stroke-width:.5"/><text x="266.4" y="332.5" font-family="Arial" font-size="16" textLength="105.5">Records click</text><rect width="228.8" height="57.3" x="204.7" y="656.6" fill="#fff" rx="12.5" ry="12.5" style="stroke:#000;stroke-width:.5"/><text x="214.7" y="681.5" font-family="Arial" font-size="16" textLength="174.3">SRN returns response</text><text x="214.7" y="700.1" font-family="Arial" font-size="16" textLength="208.8">for the relevant campaign</text><path d="M198.7 12.3V969" style="stroke:#000;stroke-width:1.5"/><rect width="220.1" height="38.6" x="450.2" y="366.3" fill="#fff" rx="12.5" ry="12.5" style="stroke:#000;stroke-width:.5"/><text x="460.2" y="391.1" font-family="Arial" font-size="16" textLength="200.1">3. User launches the app</text><rect width="221.5" height="57.3" x="449.5" y="424.9" fill="#fff" rx="12.5" ry="12.5" style="stroke:#000;stroke-width:.5"/><text x="459.5" y="449.8" font-family="Arial" font-size="16" textLength="201.5">SDK / module sends data</text><text x="459.5" y="468.4" font-family="Arial" font-size="16" textLength="194">about the install to MMP</text><rect width="233.4" height="57.3" x="443.5" y="869.8" fill="#fff" rx="12.5" ry="12.5" style="stroke:#000;stroke-width:.5"/><text x="453.5" y="894.6" font-family="Arial" font-size="16" textLength="213.4">Service receives the result</text><text x="453.5" y="913.3" font-family="Arial" font-size="16" textLength="157.5">and routes the user</text><circle cx="560.2" cy="958" r="11" fill="none" style="stroke:#222;stroke-width:1"/><circle cx="560.2" cy="958" r="6" fill="#222" style="stroke:#222;stroke-width:1"/><path d="M437.5 12.3V969" style="stroke:#000;stroke-width:1.5"/><rect width="192" height="57.3" x="744.9" y="502.1" fill="#fff" rx="12.5" ry="12.5" style="stroke:#000;stroke-width:.5"/><text x="754.9" y="527" font-family="Arial" font-size="16" textLength="151.3">Matches the install</text><text x="754.9" y="545.6" font-family="Arial" font-size="16" textLength="172">with available signals</text><path fill="#fff" d="M1014.8 584.4V604l-20 4 20 4v19.6h259.4v-37.2l-10-10h-249.4" style="stroke:#000;stroke-width:.5"/><path fill="#fff" d="M1264.2 584.4v10h10l-10-10" style="stroke:#000;stroke-width:.5"/><text x="1020.8" y="604.3" font-family="Arial" font-size="16" textLength="238.3">SRN = Self-Reported Network</text><text x="1020.8" y="622.9" font-family="Arial" font-size="16" textLength="204.1">e.g. Meta, Google, TikTok</text><rect width="307.9" height="57.3" x="686.9" y="579.4" fill="#fff" rx="12.5" ry="12.5" style="stroke:#000;stroke-width:.5"/><text x="696.9" y="604.3" font-family="Arial" font-size="16" textLength="277.2">4. Requests confirmation and data</text><text x="696.9" y="622.9" font-family="Arial" font-size="16" textLength="287.9">about clicks / impressions from SRN</text><rect width="231.8" height="38.6" x="725" y="733.9" fill="#fff" rx="12.5" ry="12.5" style="stroke:#000;stroke-width:.5"/><text x="735" y="758.8" font-family="Arial" font-size="16" textLength="211.8">Receives attribution result</text><rect width="242.9" height="57.3" x="719.4" y="792.5" fill="#fff" rx="12.5" ry="12.5" style="stroke:#000;stroke-width:.5"/><text x="729.4" y="817.4" font-family="Arial" font-size="16" textLength="222.9">5. Returns attribution result</text><text x="729.4" y="836" font-family="Arial" font-size="16" textLength="162">to the rental service</text><path d="M680.9 12.3V969m598.3-956.7V969" style="stroke:#000;stroke-width:1.5"/><path d="M107.9 55.9v20m-4-10 4 10 4-10-4 4zm456.3 339v20m-4-10 4 10 4-10-4 4zm4 512.1v20m-4-10 4 10 4-10-4 4zm284.7-377.6v20m-4-10 4 10 4-10-4 4zm4 203.1v20m-4-10 4 10 4-10-4 4zm-729-668v5m0 0h211.2m0 0v15m-4-10 4 10 4-10-4 4zm4 67.3v5m0 0H107.9m0 0v15m-4-10 4 10 4-10-4 4zm4 85.8v5m0 0h211.2m0 0v15m-4-10 4 10 4-10-4 4zm4 48.7v5m0 0h241.1m0 0v15m-4-10 4 10 4-10-4 4zm4 125.8v5m0 0h280.7m0 0v15m-4-10 4 10 4-10-4 4zm4 144.5v5m0 0H319.1m0 0v15m-4-10 4 10 4-10-4 4zm4 67.3v5m0 0h521.8m0 0v15m-4-10 4 10 4-10-4 4zm4 125.9v5m0 0H560.2m0 0v15m-4-10 4 10 4-10-4 4z" style="stroke:#000;stroke-width:1"/><text x="88.6" y="27.1" font-family="Arial" font-size="16" textLength="36.5">User</text><text x="211.9" y="27.1" font-family="Arial" font-size="16" textLength="212.5">Ad network / traffic source</text><text x="481.1" y="27.1" font-family="Arial" font-size="16" textLength="156.3">App / rental service</text><text x="961.4" y="27.1" font-family="Arial" font-size="16" textLength="37.3">MMP</text></svg>