<svg xmlns="http://www.w3.org/2000/svg" xmlns:xlink="http://www.w3.org/1999/xlink" contentStyleType="text/css" data-diagram-type="ACTIVITY" width="100%" version="1.1" viewBox="0 0 1580 999" width="1580px" zoomAndPan="magnify"><defs/><g><rect fill="none" height="18.625" style="stroke:none;stroke-width:1;" width="1547.4336" x="15" y="12.2734"/><ellipse cx="154.2773" cy="45.8984" fill="#222222" rx="10" ry="10" style="stroke:#222222;stroke-width:1;"/><rect fill="#FFFFFF" height="38.625" rx="12.5" ry="12.5" style="stroke:#000000;stroke-width:0.5;" width="266.5547" x="21" y="75.8984"/><text fill="#000000" font-family="Arial" font-size="16" lengthAdjust="spacing" textLength="246.5547" x="31" y="100.75">1. &#1042;&#1080;&#1076;&#1080;&#1090; &#1088;&#1077;&#1082;&#1083;&#1072;&#1084;&#1085;&#1099;&#1081; &#1082;&#1088;&#1077;&#1072;&#1090;&#1080;&#1074;</text><rect fill="#FFFFFF" height="75.875" rx="12.5" ry="12.5" style="stroke:#000000;stroke-width:0.5;" width="257.4688" x="25.543" y="211.7734"/><text fill="#000000" font-family="Arial" font-size="16" lengthAdjust="spacing" textLength="193" x="35.543" y="236.625">2. &#1050;&#1083;&#1080;&#1082;&#1072;&#1077;&#1090; &#1087;&#1086; &#1088;&#1077;&#1082;&#1083;&#1072;&#1084;&#1077;</text><text fill="#000000" font-family="Arial" font-size="16" lengthAdjust="spacing" textLength="149.5781" x="35.543" y="255.25">&#1055;&#1077;&#1088;&#1077;&#1093;&#1086;&#1076;&#1080;&#1090; &#1074; &#1089;&#1090;&#1086;&#1088;</text><text fill="#000000" font-family="Arial" font-size="16" lengthAdjust="spacing" textLength="237.4688" x="35.543" y="273.875">&#1059;&#1089;&#1090;&#1072;&#1085;&#1072;&#1074;&#1083;&#1080;&#1074;&#1072;&#1077;&#1090; &#1087;&#1088;&#1080;&#1083;&#1086;&#1078;&#1077;&#1085;&#1080;&#1077;</text><line style="stroke:#000000;stroke-width:1.5;" x1="15" x2="15" y1="12.2734" y2="987.6484"/><rect fill="#FFFFFF" height="57.25" rx="12.5" ry="12.5" style="stroke:#000000;stroke-width:0.5;" width="310.7813" x="297.5547" y="134.5234"/><text fill="#000000" font-family="Arial" font-size="16" lengthAdjust="spacing" textLength="184.5625" x="307.5547" y="159.375">&#1060;&#1080;&#1082;&#1089;&#1080;&#1088;&#1091;&#1077;&#1090; impression</text><text fill="#000000" font-family="Arial" font-size="16" lengthAdjust="spacing" textLength="290.7813" x="307.5547" y="178">&#1057;&#1086;&#1093;&#1088;&#1072;&#1085;&#1103;&#1077;&#1090; &#1076;&#1072;&#1085;&#1085;&#1099;&#1077; &#1076;&#1083;&#1103; &#1072;&#1090;&#1088;&#1080;&#1073;&#1091;&#1094;&#1080;&#1080;</text><rect fill="#FFFFFF" height="38.625" rx="12.5" ry="12.5" style="stroke:#000000;stroke-width:0.5;" width="152.6563" x="376.6172" y="307.6484"/><text fill="#000000" font-family="Arial" font-size="16" lengthAdjust="spacing" textLength="132.6563" x="386.6172" y="332.5">&#1060;&#1080;&#1082;&#1089;&#1080;&#1088;&#1091;&#1077;&#1090; click</text><rect fill="#FFFFFF" height="57.25" rx="12.5" ry="12.5" style="stroke:#000000;stroke-width:0.5;" width="243.2188" x="331.3359" y="675.2734"/><text fill="#000000" font-family="Arial" font-size="16" lengthAdjust="spacing" textLength="192.2734" x="341.3359" y="700.125">SRN &#1074;&#1086;&#1079;&#1074;&#1088;&#1072;&#1097;&#1072;&#1077;&#1090; &#1086;&#1090;&#1074;&#1077;&#1090;</text><text fill="#000000" font-family="Arial" font-size="16" lengthAdjust="spacing" textLength="223.2188" x="341.3359" y="718.75">&#1087;&#1086; &#1088;&#1077;&#1083;&#1077;&#1074;&#1072;&#1085;&#1090;&#1085;&#1086;&#1081; &#1082;&#1072;&#1084;&#1087;&#1072;&#1085;&#1080;&#1080;</text><line style="stroke:#000000;stroke-width:1.5;" x1="291.5547" x2="291.5547" y1="12.2734" y2="987.6484"/><rect fill="#FFFFFF" height="38.625" rx="12.5" ry="12.5" style="stroke:#000000;stroke-width:0.5;" width="360.0156" x="618.3359" y="366.2734"/><text fill="#000000" font-family="Arial" font-size="16" lengthAdjust="spacing" textLength="340.0156" x="628.3359" y="391.125">3. &#1055;&#1086;&#1083;&#1100;&#1079;&#1086;&#1074;&#1072;&#1090;&#1077;&#1083;&#1100; &#1079;&#1072;&#1087;&#1091;&#1089;&#1082;&#1072;&#1077;&#1090; &#1087;&#1088;&#1080;&#1083;&#1086;&#1078;&#1077;&#1085;&#1080;&#1077;</text><rect fill="#FFFFFF" height="57.25" rx="12.5" ry="12.5" style="stroke:#000000;stroke-width:0.5;" width="285.3516" x="655.668" y="424.8984"/><text fill="#000000" font-family="Arial" font-size="16" lengthAdjust="spacing" textLength="265.3516" x="665.668" y="449.75">SDK / &#1084;&#1086;&#1076;&#1091;&#1083;&#1100; &#1087;&#1077;&#1088;&#1077;&#1076;&#1072;&#1105;&#1090; &#1076;&#1072;&#1085;&#1085;&#1099;&#1077;</text><text fill="#000000" font-family="Arial" font-size="16" lengthAdjust="spacing" textLength="168.1797" x="665.668" y="468.375">&#1086;&#1073; &#1091;&#1089;&#1090;&#1072;&#1085;&#1086;&#1074;&#1082;&#1077; &#1074; MMP</text><rect fill="#FFFFFF" height="57.25" rx="12.5" ry="12.5" style="stroke:#000000;stroke-width:0.5;" width="300.7344" x="647.9766" y="888.3984"/><text fill="#000000" font-family="Arial" font-size="16" lengthAdjust="spacing" textLength="234.4141" x="657.9766" y="913.25">&#1057;&#1077;&#1088;&#1074;&#1080;&#1089; &#1087;&#1086;&#1083;&#1091;&#1095;&#1072;&#1077;&#1090; &#1088;&#1077;&#1079;&#1091;&#1083;&#1100;&#1090;&#1072;&#1090;</text><text fill="#000000" font-family="Arial" font-size="16" lengthAdjust="spacing" textLength="280.7344" x="657.9766" y="931.875">&#1080; &#1084;&#1072;&#1088;&#1096;&#1088;&#1091;&#1090;&#1080;&#1079;&#1080;&#1088;&#1091;&#1077;&#1090; &#1087;&#1086;&#1083;&#1100;&#1079;&#1086;&#1074;&#1072;&#1090;&#1077;&#1083;&#1103;</text><ellipse cx="798.3438" cy="976.6484" fill="none" rx="11" ry="11" style="stroke:#222222;stroke-width:1;"/><ellipse cx="798.3438" cy="976.6484" fill="#222222" rx="6" ry="6" style="stroke:#222222;stroke-width:1;"/><line style="stroke:#000000;stroke-width:1.5;" x1="612.3359" x2="612.3359" y1="12.2734" y2="987.6484"/><rect fill="#FFFFFF" height="57.25" rx="12.5" ry="12.5" style="stroke:#000000;stroke-width:0.5;" width="233.7969" x="1014.8984" y="502.1484"/><text fill="#000000" font-family="Arial" font-size="16" lengthAdjust="spacing" textLength="208.8672" x="1024.8984" y="527">&#1057;&#1086;&#1087;&#1086;&#1089;&#1090;&#1072;&#1074;&#1083;&#1103;&#1077;&#1090; &#1091;&#1089;&#1090;&#1072;&#1085;&#1086;&#1074;&#1082;&#1091;</text><text fill="#000000" font-family="Arial" font-size="16" lengthAdjust="spacing" textLength="213.7969" x="1024.8984" y="545.625">&#1089; &#1076;&#1086;&#1089;&#1090;&#1091;&#1087;&#1085;&#1099;&#1084;&#1080; &#1089;&#1080;&#1075;&#1085;&#1072;&#1083;&#1072;&#1084;&#1080;</text><path d="M1272.2578,593.7109 L1272.2578,613.3359 L1252.2578,617.3359 L1272.2578,621.3359 L1272.2578,640.9609 A0,0 0 0 0 1272.2578,640.9609 L1555.8906,640.9609 A0,0 0 0 0 1555.8906,640.9609 L1555.8906,603.7109 L1545.8906,593.7109 L1272.2578,593.7109 A0,0 0 0 0 1272.2578,593.7109" fill="#FFFFFF" style="stroke:#000000;stroke-width:0.5;"/><path d="M1545.8906,593.7109 L1545.8906,603.7109 L1555.8906,603.7109 L1545.8906,593.7109" fill="#FFFFFF" style="stroke:#000000;stroke-width:0.5;"/><text fill="#000000" font-family="Arial" font-size="16" lengthAdjust="spacing" textLength="238.3203" x="1278.2578" y="613.5625">SRN = Self-Reported Network</text><text fill="#000000" font-family="Arial" font-size="16" lengthAdjust="spacing" textLength="262.6328" x="1278.2578" y="632.1875">&#1085;&#1072;&#1087;&#1088;&#1080;&#1084;&#1077;&#1088;: Meta, Google, TikTok</text><rect fill="#FFFFFF" height="75.875" rx="12.5" ry="12.5" style="stroke:#000000;stroke-width:0.5;" width="240.9219" x="1011.3359" y="579.3984"/><text fill="#000000" font-family="Arial" font-size="16" lengthAdjust="spacing" textLength="187.1563" x="1021.3359" y="604.25">4. &#1047;&#1072;&#1087;&#1088;&#1072;&#1096;&#1080;&#1074;&#1072;&#1077;&#1090; &#1091; SRN</text><text fill="#000000" font-family="Arial" font-size="16" lengthAdjust="spacing" textLength="220.9219" x="1021.3359" y="622.875">&#1087;&#1086;&#1076;&#1090;&#1074;&#1077;&#1088;&#1078;&#1076;&#1077;&#1085;&#1080;&#1077; &#1080; &#1076;&#1072;&#1085;&#1085;&#1099;&#1077;</text><text fill="#000000" font-family="Arial" font-size="16" lengthAdjust="spacing" textLength="157.1641" x="1021.3359" y="641.5">&#1086; &#1082;&#1083;&#1080;&#1082;&#1072;&#1093; / &#1087;&#1086;&#1082;&#1072;&#1079;&#1072;&#1093;</text><rect fill="#FFFFFF" height="38.625" rx="12.5" ry="12.5" style="stroke:#000000;stroke-width:0.5;" width="286.8906" x="988.3516" y="752.5234"/><text fill="#000000" font-family="Arial" font-size="16" lengthAdjust="spacing" textLength="266.8906" x="998.3516" y="777.375">&#1055;&#1086;&#1083;&#1091;&#1095;&#1072;&#1077;&#1090; &#1088;&#1077;&#1079;&#1091;&#1083;&#1100;&#1090;&#1072;&#1090; &#1072;&#1090;&#1088;&#1080;&#1073;&#1091;&#1094;&#1080;&#1080;</text><rect fill="#FFFFFF" height="57.25" rx="12.5" ry="12.5" style="stroke:#000000;stroke-width:0.5;" width="251.7266" x="1005.9336" y="811.1484"/><text fill="#000000" font-family="Arial" font-size="16" lengthAdjust="spacing" textLength="214.2188" x="1015.9336" y="836">5. &#1042;&#1086;&#1079;&#1074;&#1088;&#1072;&#1097;&#1072;&#1077;&#1090; &#1088;&#1077;&#1079;&#1091;&#1083;&#1100;&#1090;&#1072;&#1090;</text><text fill="#000000" font-family="Arial" font-size="16" lengthAdjust="spacing" textLength="231.7266" x="1015.9336" y="854.625">&#1072;&#1090;&#1088;&#1080;&#1073;&#1091;&#1094;&#1080;&#1080; &#1089;&#1077;&#1088;&#1074;&#1080;&#1089;&#1091; &#1072;&#1088;&#1077;&#1085;&#1076;&#1099;</text><line style="stroke:#000000;stroke-width:1.5;" x1="982.3516" x2="982.3516" y1="12.2734" y2="987.6484"/><line style="stroke:#000000;stroke-width:1.5;" x1="1560.8906" x2="1560.8906" y1="12.2734" y2="987.6484"/><line style="stroke:#000000;stroke-width:1;" x1="154.2773" x2="154.2773" y1="55.8984" y2="75.8984"/><polygon fill="#000000" points="150.2773,65.8984,154.2773,75.8984,158.2773,65.8984,154.2773,69.8984" style="stroke:#000000;stroke-width:1;"/><line style="stroke:#000000;stroke-width:1;" x1="798.3438" x2="798.3438" y1="404.8984" y2="424.8984"/><polygon fill="#000000" points="794.3438,414.8984,798.3438,424.8984,802.3438,414.8984,798.3438,418.8984" style="stroke:#000000;stroke-width:1;"/><line style="stroke:#000000;stroke-width:1;" x1="798.3438" x2="798.3438" y1="945.6484" y2="965.6484"/><polygon fill="#000000" points="794.3438,955.6484,798.3438,965.6484,802.3438,955.6484,798.3438,959.6484" style="stroke:#000000;stroke-width:1;"/><line style="stroke:#000000;stroke-width:1;" x1="1131.7969" x2="1131.7969" y1="559.3984" y2="579.3984"/><polygon fill="#000000" points="1127.7969,569.3984,1131.7969,579.3984,1135.7969,569.3984,1131.7969,573.3984" style="stroke:#000000;stroke-width:1;"/><line style="stroke:#000000;stroke-width:1;" x1="1131.7969" x2="1131.7969" y1="791.1484" y2="811.1484"/><polygon fill="#000000" points="1127.7969,801.1484,1131.7969,811.1484,1135.7969,801.1484,1131.7969,805.1484" style="stroke:#000000;stroke-width:1;"/><line style="stroke:#000000;stroke-width:1;" x1="154.2773" x2="154.2773" y1="114.5234" y2="119.5234"/><line style="stroke:#000000;stroke-width:1;" x1="154.2773" x2="452.9453" y1="119.5234" y2="119.5234"/><line style="stroke:#000000;stroke-width:1;" x1="452.9453" x2="452.9453" y1="119.5234" y2="134.5234"/><polygon fill="#000000" points="448.9453,124.5234,452.9453,134.5234,456.9453,124.5234,452.9453,128.5234" style="stroke:#000000;stroke-width:1;"/><line style="stroke:#000000;stroke-width:1;" x1="452.9453" x2="452.9453" y1="191.7734" y2="196.7734"/><line style="stroke:#000000;stroke-width:1;" x1="452.9453" x2="154.2773" y1="196.7734" y2="196.7734"/><line style="stroke:#000000;stroke-width:1;" x1="154.2773" x2="154.2773" y1="196.7734" y2="211.7734"/><polygon fill="#000000" points="150.2773,201.7734,154.2773,211.7734,158.2773,201.7734,154.2773,205.7734" style="stroke:#000000;stroke-width:1;"/><line style="stroke:#000000;stroke-width:1;" x1="154.2773" x2="154.2773" y1="287.6484" y2="292.6484"/><line style="stroke:#000000;stroke-width:1;" x1="154.2773" x2="452.9453" y1="292.6484" y2="292.6484"/><line style="stroke:#000000;stroke-width:1;" x1="452.9453" x2="452.9453" y1="292.6484" y2="307.6484"/><polygon fill="#000000" points="448.9453,297.6484,452.9453,307.6484,456.9453,297.6484,452.9453,301.6484" style="stroke:#000000;stroke-width:1;"/><line style="stroke:#000000;stroke-width:1;" x1="452.9453" x2="452.9453" y1="346.2734" y2="351.2734"/><line style="stroke:#000000;stroke-width:1;" x1="452.9453" x2="798.3438" y1="351.2734" y2="351.2734"/><line style="stroke:#000000;stroke-width:1;" x1="798.3438" x2="798.3438" y1="351.2734" y2="366.2734"/><polygon fill="#000000" points="794.3438,356.2734,798.3438,366.2734,802.3438,356.2734,798.3438,360.2734" style="stroke:#000000;stroke-width:1;"/><line style="stroke:#000000;stroke-width:1;" x1="798.3438" x2="798.3438" y1="482.1484" y2="487.1484"/><line style="stroke:#000000;stroke-width:1;" x1="798.3438" x2="1131.7969" y1="487.1484" y2="487.1484"/><line style="stroke:#000000;stroke-width:1;" x1="1131.7969" x2="1131.7969" y1="487.1484" y2="502.1484"/><polygon fill="#000000" points="1127.7969,492.1484,1131.7969,502.1484,1135.7969,492.1484,1131.7969,496.1484" style="stroke:#000000;stroke-width:1;"/><line style="stroke:#000000;stroke-width:1;" x1="1131.7969" x2="1131.7969" y1="655.2734" y2="660.2734"/><line style="stroke:#000000;stroke-width:1;" x1="1131.7969" x2="452.9453" y1="660.2734" y2="660.2734"/><line style="stroke:#000000;stroke-width:1;" x1="452.9453" x2="452.9453" y1="660.2734" y2="675.2734"/><polygon fill="#000000" points="448.9453,665.2734,452.9453,675.2734,456.9453,665.2734,452.9453,669.2734" style="stroke:#000000;stroke-width:1;"/><line style="stroke:#000000;stroke-width:1;" x1="452.9453" x2="452.9453" y1="732.5234" y2="737.5234"/><line style="stroke:#000000;stroke-width:1;" x1="452.9453" x2="1131.7969" y1="737.5234" y2="737.5234"/><line style="stroke:#000000;stroke-width:1;" x1="1131.7969" x2="1131.7969" y1="737.5234" y2="752.5234"/><polygon fill="#000000" points="1127.7969,742.5234,1131.7969,752.5234,1135.7969,742.5234,1131.7969,746.5234" style="stroke:#000000;stroke-width:1;"/><line style="stroke:#000000;stroke-width:1;" x1="1131.7969" x2="1131.7969" y1="868.3984" y2="873.3984"/><line style="stroke:#000000;stroke-width:1;" x1="1131.7969" x2="798.3438" y1="873.3984" y2="873.3984"/><line style="stroke:#000000;stroke-width:1;" x1="798.3438" x2="798.3438" y1="873.3984" y2="888.3984"/><polygon fill="#000000" points="794.3438,878.3984,798.3438,888.3984,802.3438,878.3984,798.3438,882.3984" style="stroke:#000000;stroke-width:1;"/><text fill="#000000" font-family="Arial" font-size="16" lengthAdjust="spacing" textLength="117.8281" x="94.3633" y="27.125">&#1055;&#1086;&#1083;&#1100;&#1079;&#1086;&#1074;&#1072;&#1090;&#1077;&#1083;&#1100;</text><text fill="#000000" font-family="Arial" font-size="16" lengthAdjust="spacing" textLength="305.3828" x="299.2539" y="27.125">&#1056;&#1077;&#1082;&#1083;&#1072;&#1084;&#1085;&#1072;&#1103; &#1089;&#1077;&#1090;&#1100; / &#1080;&#1089;&#1090;&#1086;&#1095;&#1085;&#1080;&#1082; &#1090;&#1088;&#1072;&#1092;&#1080;&#1082;&#1072;</text><text fill="#000000" font-family="Arial" font-size="16" lengthAdjust="spacing" textLength="249.5938" x="672.5469" y="27.125">&#1055;&#1088;&#1080;&#1083;&#1086;&#1078;&#1077;&#1085;&#1080;&#1077; / &#1089;&#1077;&#1088;&#1074;&#1080;&#1089; &#1072;&#1088;&#1077;&#1085;&#1076;&#1099;</text><text fill="#000000" font-family="Arial" font-size="16" lengthAdjust="spacing" textLength="37.2578" x="1252.9922" y="27.125">MMP</text></g></svg>
